<svg width="64" height="64" viewBox="0 0 64 64" fill="none" xmlns="http://www.w3.org/2000/svg">
<g clip-path="url(#clip0_16_22)">
<path fill-rule="evenodd" clip-rule="evenodd" d="M8.71822 0H55.28C60.096 0 64 3.904 64 8.71822V55.28C64 60.096 60.096 64 55.2818 64H8.71822C3.904 64 0 60.096 0 55.2818V8.71822C0 3.904 3.904 0 8.71822 0Z" fill="#212121"/>
<path fill-rule="evenodd" clip-rule="evenodd" d="M40.9227 26.7098C43.7628 28.6801 47.2426 29.8385 51 29.8385V22.82C50.2882 22.82 49.5799 22.7482 48.8843 22.6048V28.1289C45.127 28.1289 41.6489 26.9688 38.807 25.0003V39.3208C38.807 46.4845 32.8222 52.2922 25.4409 52.2922C22.6873 52.2922 20.1265 51.4838 18 50.0979C20.4274 52.5057 23.8118 54 27.5565 54C34.9379 54 40.9227 48.1924 40.9227 41.0286V26.7098ZM43.5339 19.6301C42.0832 18.092 41.1299 16.1024 40.9227 13.9029V13H38.9169C39.4215 15.7945 41.1443 18.183 43.5339 19.6301ZM22.6692 44.6017C21.8583 43.5693 21.4204 42.3077 21.4222 41.0093C21.4222 37.7319 24.1596 35.0757 27.5367 35.0757C28.1656 35.0757 28.791 35.1685 29.3911 35.3539V28.1797C28.69 28.0869 27.9836 28.0467 27.2754 28.0607V33.6444C26.6753 33.4589 26.05 33.3661 25.4192 33.3661C22.0421 33.3661 19.3047 36.0224 19.3047 39.2998C19.3065 41.6183 20.6743 43.6253 22.6692 44.6017Z" fill="#EC407A"/>
<path fill-rule="evenodd" clip-rule="evenodd" d="M39.1232 24.6051C41.9068 26.5105 45.3174 27.6307 49 27.6307V22.2885C46.9441 21.8688 45.1249 20.84 43.756 19.41C41.414 18.0106 39.7273 15.7024 39.2327 13H34.07V40.1056C34.0577 43.265 31.3801 45.8236 28.0772 45.8236C26.1308 45.8236 24.4017 44.9352 23.3066 43.5594C21.3514 42.6152 20.0108 40.6742 20.0108 38.4337C20.0108 35.2642 22.6937 32.6955 26.0036 32.6955C26.6377 32.6955 27.2488 32.7903 27.8229 32.9646V27.5664C20.7155 27.7069 15 33.2675 15 40.1073C15 43.5222 16.4236 46.6172 18.7338 48.878C20.818 50.2182 23.3278 51 26.0266 51C33.2611 51 39.1268 45.3836 39.1268 38.4557L39.1232 24.6051Z" fill="white"/>
<path fill-rule="evenodd" clip-rule="evenodd" d="M49 21.6633V20.1231C47.1494 20.1267 45.3376 19.5965 43.7673 18.5937C45.1561 20.1501 46.9855 21.2232 49 21.6633ZM39.2518 11.762C39.2043 11.4861 39.169 11.2102 39.1443 10.9306V10H32.031V38.8904C32.0205 42.2575 29.3468 44.9844 26.051 44.9844C25.0834 44.9844 24.1705 44.75 23.3615 44.3316C24.4542 45.7978 26.1797 46.7447 28.1219 46.7447C31.4177 46.7447 34.0896 44.0178 34.1019 40.6506V11.762H39.2518ZM27.8663 27.2866V25.6472C27.2724 25.5643 26.6732 25.5228 26.0722 25.5228C18.8514 25.5228 13 31.5086 13 38.8922C13 43.5218 15.3 47.6013 18.795 50C16.4897 47.5905 15.0691 44.2919 15.0691 40.6524C15.0691 33.3626 20.7742 27.4363 27.8663 27.2866Z" fill="#81D4FA"/>
</g>
<defs>
<clipPath id="clip0_16_22">
<rect width="64" height="64" fill="white"/>
</clipPath>
</defs>
</svg>
